#!OML:ASF E:\Steps\Project 1\Capture day 1\Session 2\Subject.ASF
:FULLY-SPECIFIED
:DEGREES
109
root -1.19798 19.5964 20.7262 -155.059 -2.11268 179.974
lowerback -27.0068 -3.32301 -9.03721
upperback -0.811837 -2.11131 0.112175
thorax 13.7627 -1.74685 4.21309
lowerneck -4.79513 -6.79262 0.206818
upperneck 26.6609 -7.70346 0.71896
head 9.15015 -2.71971 -0.363477
rclavicle -9.34288e-015 3.10104e-014
rhumerus -34.1861 -15.718 -80.3023
rradius 32.221
rwrist -4.48025
rhand -1.79311 -56.3457
rfingers 7.12502
rthumb 23.8718 -84.8821
lclavicle -9.34288e-015 3.10104e-014
lhumerus -29.6901 0.647698 82.2144
lradius 22.0298
lwrist -0.0529028
lhand -20.7983 -10.3619
lfingers 7.12502
lthumb 5.56911 19.5449
rfemur -32.5657 3.3617 21.4941
rtibia 25.7561
rfoot -26.0834 1.79532
rtoes -29.45
lfemur -28.4543 -10.7729 -20.2195
ltibia 19.7875
lfoot -14.3021 4.82964
ltoes -25.7467
110
root -1.19106 19.5925 20.7333 -155.021 -1.92226 180.088
lowerback -26.8901 -3.32413 -9.02335
upperback -0.860809 -2.13937 0.143716
thorax 13.6563 -1.75601 4.23389
lowerneck -5.38956 -6.92772 0.233505
upperneck 27.7795 -7.7333 0.384643
head 9.64439 -2.69318 -0.51235
rclavicle -7.15625e-015 -6.36111e-015
rhumerus -34.428 -15.6823 -80.2189
rradius 32.3526
rwrist -4.73322
rhand -1.46661 -56.0172
rfingers 7.12502
rthumb 24.1849 -84.5124
lclavicle -7.15625e-015 -6.36111e-015
lhumerus -29.8311 1.06858 81.9641
lradius 21.8106
lwrist -0.231957
lhand -20.4342 -11.0334
lfingers 7.12502
lthumb 5.92062 18.8638
rfemur -33.598 2.61577 21.75
rtibia 27.4705
rfoot -26.347 2.70472
rtoes -31.6641
lfemur -28.6992 -10.7277 -20.0657
ltibia 20.1287
lfoot -14.452 4.88973
ltoes -24.6225
111
root -1.18529 19.5891 20.7411 -154.982 -1.70037 180.17
lowerback -26.7619 -3.32231 -9.07042
upperback -0.893728 -2.14391 0.185363
thorax 13.5615 -1.75851 4.30784
lowerneck -6.06651 -6.97336 0.234441
upperneck 28.7538 -7.66749 0.116665
head 10.1162 -2.63082 -0.629661
rclavicle -3.18055e-015 -3.97569e-014
rhumerus -34.5441 -15.5591 -80.1597
rradius 32.4328
rwrist -4.88811
rhand -1.50956 -56.4901
rfingers 7.12502
rthumb 24.1437 -84.9908
lclavicle -3.18055e-015 -3.97569e-014
lhumerus -29.866 1.37825 81.7618
lradius 21.4734
lwrist -0.451163
lhand -20.7721 -11.4458
lfingers 7.12502
lthumb 5.59434 18.4604
rfemur -34.6157 1.98921 21.8857
rtibia 29.1708
rfoot -26.5236 3.69438
rtoes -33.4491
lfemur -28.883 -10.5993 -19.99
ltibia 20.3579
lfoot -14.568 4.91617
ltoes -23.8614
112
root -1.18062 19.5854 20.7478 -155.007 -1.45062 180.145
lowerback -26.5793 -3.31852 -9.22149
upperback -0.901678 -2.10901 0.169798
thorax 13.4628 -1.74753 4.39192
lowerneck -5.31494 -6.68458 0.28266
upperneck 27.5342 -7.41593 0.363728
head 9.53784 -2.56145 -0.493385
rclavicle -1.37161e-014 7.95139e-016
rhumerus -34.6758 -15.5831 -80.0964
rradius 32.5511
rwrist -4.87091
rhand -1.54542 -57.1423
rfingers 7.12502
rthumb 24.1093 -85.6475
lclavicle -1.37161e-014 7.95139e-016
lhumerus -30.0237 1.2927 81.6447
lradius 21.3693
lwrist -0.423165
lhand -21.1511 -10.8498
lfingers 7.12502
lthumb 5.22844 19.0657
rfemur -35.5774 1.27459 21.9243
rtibia 30.8787
rfoot -26.5284 4.67912
rtoes -35.1283
lfemur -28.9424 -10.5258 -20.0643
ltibia 20.4922
lfoot -14.6782 5.0266
ltoes -23.6338
113
root -1.17696 19.5833 20.7555 -155.106 -1.27968 180.075
lowerback -26.2931 -3.35389 -9.38787
upperback -1.23478 -2.12849 0.0194706
thorax 13.6723 -1.78713 4.57595
lowerneck -4.78491 -6.56059 0.160644
upperneck 26.8133 -7.34418 0.681424
head 9.20081 -2.55153 -0.336468
rclavicle -6.36111e-015 -2.94201e-014
rhumerus -34.8711 -15.582 -80.0482
rradius 32.7842
rwrist -4.88028
rhand -1.52415 -57.9586
rfingers 7.12502
rthumb 24.1297 -86.4611
lclavicle -6.36111e-015 -2.94201e-014
lhumerus -30.3421 1.06441 81.573
lradius 21.4778
lwrist -0.289219
lhand -21.6037 -11.1568
lfingers 7.12502
lthumb 4.79148 18.769
rfemur -36.4667 0.452627 21.9585
rtibia 32.573
rfoot -26.4589 5.23438
rtoes -38.1711
lfemur -28.9934 -10.622 -20.1572
ltibia 20.7577
lfoot -14.8197 5.09022
ltoes -23.111
114
root -1.17226 19.5815 20.7621 -155.176 -1.16289 180.077
lowerback -26.0807 -3.40845 -9.48474
upperback -1.21473 -2.18887 0.0355047
thorax 13.5945 -1.81614 4.632
lowerneck -4.48391 -6.5763 0.187722
upperneck 26.5716 -7.33954 0.525907
head 9.05114 -2.57835 -0.382097
rclavicle -1.88845e-014 5.00937e-014
rhumerus -35.042 -15.5009 -80.0081
rradius 32.8527
rwrist -5.31487
rhand -2.26718 -57.8366
rfingers 7.12502
rthumb 23.4171 -86.4318
lclavicle -1.88845e-014 5.00937e-014
lhumerus -30.4968 1.09396 81.4405
lradius 21.3131
lwrist -0.41993
lhand -22.127 -10.8354
lfingers 7.12502
lthumb 4.28615 19.1012
rfemur -37.3662 -0.262041 22.0231
rtibia 34.2262
rfoot -26.4558 5.79265
rtoes -40.9699
lfemur -29.1332 -10.7568 -20.1302
ltibia 21.1946
lfoot -15.08 5.29648
ltoes -23.0206
115
root -1.16533 19.576 20.7644 -155.211 -1.05062 180.241
lowerback -26.0029 -3.4111 -9.40317
upperback -1.16696 -2.21592 0.0528861
thorax 13.6115 -1.82232 4.59662
lowerneck -5.25756 -6.79601 0.0527815
upperneck 28.3143 -7.4623 0.494561
head 9.82644 -2.53252 -0.415975
rclavicle 2.56432e-014 5.56597e-015
rhumerus -35.2368 -15.6976 -79.9442
rradius 33.0423
rwrist -5.27841
rhand -2.29351 -57.8219
rfingers 7.12502
rthumb 23.3918 -86.4203
lclavicle 2.56432e-014 5.56597e-015
lhumerus -30.4799 1.05406 81.285
lradius 21.0105
lwrist -0.318762
lhand -22.1547 -10.8933
lfingers 7.12502
lthumb 4.25942 19.0438
rfemur -38.2918 -0.826848 22.2088
rtibia 35.8116
rfoot -26.3481 6.76572
rtoes -42.7019
lfemur -29.289 -10.8074 -19.9068
ltibia 21.636
lfoot -15.3764 5.67822
ltoes -23.399
